#!OML:ASF G:\JayActor3\Patient Classification 1\Patient 1\Session 6\male.ASF
:FULLY-SPECIFIED
:DEGREES
600
root 3.16526 16.0837 2.10802 -365.907 -27.8023 4.24717
lowerback 0.00922052 -1.47208 -1.85778
upperback 2.6466 -1.92364 -1.0017
thorax 2.73756 -0.994929 -0.034655
lowerneck -5.61635 -6.11602 -4.04848
upperneck 9.72901 -8.61189 6.79521
head 4.30017 -4.06603 2.24434
rclavicle 8.81486e-015 -4.96962e-015
rhumerus -38.6246 -6.00111 -84.4138
rradius 23.9724
rwrist 9.88568
rhand -16.8365 -10.3772
rfingers 7.12502
rthumb 9.39306 -40.1479
lclavicle 8.81486e-015 -4.96962e-015
lhumerus -27.4846 6.07986 79.797
lradius 33.6938
lwrist 22.0063
lhand -20.9586 11.9119
lfingers 7.12502
lthumb 5.41436 41.8227
rfemur -28.8178 -0.33107 26.794
rtibia 34.5667
rfoot -19.2842 -26.1155
rtoes 9.57595
lfemur 22.4858 15.8831 -14.7683
ltibia 28.1974
lfoot 3.27647 2.974
ltoes -28.5908
601
root 3.03523 16.1061 2.2762 -366.102 -28.0809 4.41167
lowerback 0.0195963 -1.51512 -1.96361
upperback 2.57428 -1.98125 -0.983281
thorax 2.66239 -1.02544 0.0436139
lowerneck -5.67713 -6.1093 -4.03963
upperneck 9.87865 -8.61398 6.80196
head 4.35594 -4.06306 2.24105
rclavicle -5.81445e-015 3.18055e-015
rhumerus -38.5408 -6.14162 -84.2289
rradius 23.596
rwrist 10.3364
rhand -16.4195 -10.3573
rfingers 7.12502
rthumb 9.79541 -40.1094
lclavicle -5.81445e-015 3.18055e-015
lhumerus -28.1169 6.71288 79.6664
lradius 33.1669
lwrist 21.7876
lhand -20.9077 12.0058
lfingers 7.12502
lthumb 5.46345 41.9153
rfemur -28.1496 -0.00735336 26.842
rtibia 35.0848
rfoot -19.3933 -26.1709
rtoes 10.1314
lfemur 20.6046 15.8461 -14.4616
ltibia 32.3084
lfoot 5.78267 2.94522
ltoes -25.7032
602
root 2.90813 16.1276 2.4424 -366.209 -28.356 4.27799
lowerback 0.12164 -1.57518 -1.78544
upperback 2.51079 -2.06903 -0.902685
thorax 2.53728 -1.06517 0.0291972
lowerneck -5.72927 -6.10497 -4.00064
upperneck 10.0222 -8.61997 6.78931
head 4.40655 -4.06221 2.2272
rclavicle 3.40481e-014 -3.02153e-014
rhumerus -38.4478 -6.26322 -84.049
rradius 23.2894
rwrist 10.7695
rhand -15.9528 -10.3312
rfingers 7.12502
rthumb 10.2457 -40.0616
lclavicle 3.40481e-014 -3.02153e-014
lhumerus -28.7957 7.33398 79.5313
lradius 32.6833
lwrist 21.5683
lhand -20.8136 12.093
lfingers 7.12502
lthumb 5.55435 42.0002
rfemur -27.2734 0.202801 27.181
rtibia 35.3764
rfoot -19.5825 -26.1592
rtoes 10.6113
lfemur 18.748 15.611 -13.9395
ltibia 36.3455
lfoot 8.21126 2.77108
ltoes -22.6031
603
root 2.78403 16.1489 2.60735 -366.219 -28.635 3.87127
lowerback 0.288162 -1.64445 -1.33955
upperback 2.45555 -2.17362 -0.76539
thorax 2.37631 -1.10851 -0.0745988
lowerneck -5.75941 -6.10821 -3.94466
upperneck 10.1395 -8.63555 6.76602
head 4.44484 -4.06689 2.20779
rclavicle -8.1275e-014 -4.57205e-015
rhumerus -38.355 -6.35876 -83.88
rradius 23.0672
rwrist 11.1469
rhand -15.5026 -10.3023
rfingers 7.12502
rthumb 10.6799 -40.0109
lclavicle -8.1275e-014 -4.57205e-015
lhumerus -29.5058 7.90159 79.4092
lradius 32.2405
lwrist 21.3648
lhand -20.674 12.173
lfingers 7.12502
lthumb 5.68911 42.0766
rfemur -26.2115 0.313195 27.7742
rtibia 35.4243
rfoot -19.7657 -26.0608
rtoes 11.0668
lfemur 16.9113 15.2224 -13.2135
ltibia 40.2634
lfoot 10.297 2.29966
ltoes -19.6645
604
root 2.66219 16.1696 2.77059 -366.123 -28.9293 3.24333
lowerback 0.477858 -1.7142 -0.687536
upperback 2.40616 -2.2793 -0.578275
thorax 2.20144 -1.14963 -0.241239
lowerneck -5.76496 -6.12241 -3.88372
upperneck 10.2194 -8.66451 6.74212
head 4.46811 -4.0791 2.18774
rclavicle 3.84742e-014 6.95746e-015
rhumerus -38.2603 -6.41006 -83.7341
rradius 22.9316
rwrist 11.4232
rhand -15.1178 -10.2782
rfingers 7.12502
rthumb 11.0511 -39.9672
lclavicle 3.84742e-014 6.95746e-015
lhumerus -30.2175 8.45135 79.302
lradius 31.8142
lwrist 21.1405
lhand -20.4826 12.2278
lfingers 7.12502
lthumb 5.87394 42.1264
rfemur -25.0299 0.328382 28.5703
rtibia 35.2536
rfoot -19.9079 -25.8881
rtoes 11.4707
lfemur 15.0616 14.7066 -12.3479
ltibia 44.0221
lfoot 11.835 1.52345
ltoes -17.2254
605
root 2.54223 16.1896 2.93179 -365.922 -29.2564 2.45366
lowerback 0.654629 -1.77414 0.116981
upperback 2.36328 -2.36959 -0.357832
thorax 2.03475 -1.18172 -0.458705
lowerneck -5.74541 -6.14949 -3.82747
upperneck 10.2533 -8.71027 6.73781
head 4.47509 -4.09998 2.1746
rclavicle 4.18131e-014 -5.96354e-015
rhumerus -38.1578 -6.42272 -83.6223
rradius 22.8789
rwrist 11.5916
rhand -14.846 -10.2582
rfingers 7.12502
rthumb 11.3133 -39.9331
lclavicle 4.18131e-014 -5.96354e-015
lhumerus -30.9129 8.92573 79.2211
lradius 31.404
lwrist 20.9271
lhand -20.2638 12.2739
lfingers 7.12502
lthumb 6.08516 42.1665
rfemur -23.7931 0.292378 29.5094
rtibia 34.9114
rfoot -19.9993 -25.6796
rtoes 11.8073
lfemur 13.18 14.1149 -11.4008
ltibia 47.5835
lfoot 12.6826 0.541304
ltoes -15.4447
606
root 2.42354 16.2092 3.08975 -365.64 -29.6012 1.6143
lowerback 0.782107 -1.82164 0.954253
upperback 2.32595 -2.44004 -0.125422
thorax 1.89987 -1.2046 -0.683416
lowerneck -5.70947 -6.18818 -3.80378
upperneck 10.2408 -8.77153 6.78229
head 4.46963 -4.12824 2.18149
rclavicle 1.11605e-013 -5.96354e-015
rhumerus -38.0299 -6.35008 -83.5699
rradius 22.9036
rwrist 11.5877
rhand -14.7163 -10.2591
rfingers 7.12502
rthumb 11.4383 -39.9271
lclavicle 1.11605e-013 -5.96354e-015
lhumerus -31.5541 9.35556 79.1668
lradius 30.9798
lwrist 20.7079
lhand -20.0299 12.3069
lfingers 7.12502
lthumb 6.31097 42.1929
rfemur -22.578 0.214987 30.483
rtibia 34.4541
rfoot -20.0287 -25.4241
rtoes 12.1162
lfemur 11.2318 13.4593 -10.4943
ltibia 50.916
lfoot 12.8371 -0.505642
ltoes -14.3165
607
root 2.30562 16.2288 3.24401 -365.316 -29.957 0.809892
lowerback 0.848102 -1.85257 1.7415
upperback 2.29996 -2.48649 0.096714
thorax 1.81267 -1.21694 -0.892667
lowerneck -5.66153 -6.24086 -3.80114
upperneck 10.1817 -8.85206 6.87236
head 4.452 -4.16541 2.20524
rclavicle -6.54933e-014 4.77083e-015
rhumerus -37.865 -6.21695 -83.5748
rradius 22.9928
rwrist 11.443
rhand -14.7245 -10.2786
rfingers 7.12502
rthumb 11.4304 -39.947
lclavicle -6.54933e-014 4.77083e-015
lhumerus -32.1201 9.71065 79.1589
lradius 30.5536
lwrist 20.5615
lhand -19.8996 12.4373
lfingers 7.12502
lthumb 6.4367 42.3195
rfemur -21.4134 0.108102 31.4128
rtibia 33.9278
rfoot -20.0013 -25.1283
rtoes 12.3719
lfemur 9.22186 12.7455 -9.71726
ltibia 53.9876
lfoot 12.413 -1.49715
ltoes -13.8339
608
root 2.18864 16.2483 3.39532 -364.993 -30.3263 0.0718946
lowerback 0.863713 -1.86869 2.444
upperback 2.29944 -2.51343 0.30781
thorax 1.78327 -1.22075 -1.06795
lowerneck -5.60506 -6.29686 -3.81738
upperneck 10.075 -8.93574 6.99561
head 4.42102 -4.20415 2.24272
rclavicle -1.02421e-013 1.59028e-015
rhumerus -37.6472 -6.01375 -83.6272
rradius 23.1329
rwrist 11.183
rhand -14.8636 -10.3181
rfingers 7.12502
rthumb 11.2963 -39.9939
lclavicle -1.02421e-013 1.59028e-015
lhumerus -32.5995 9.98937 79.2098
lradius 30.1164
lwrist 20.5043
lhand -19.868 12.655
lfingers 7.12502
lthumb 6.46726 42.5362
rfemur -20.2823 -0.037061 32.2687
rtibia 33.3707
rfoot -19.9299 -24.7873
rtoes 12.545
lfemur 7.19898 11.9797 -9.08681
ltibia 56.7703
lfoot 11.5832 -2.35308
ltoes -13.7837
609
root 2.07262 16.268 3.5444 -364.693 -30.7336 -0.591274
lowerback 0.833774 -1.86188 3.0609
upperback 2.33149 -2.51186 0.502099
thorax 1.81691 -1.21065 -1.21474
lowerneck -5.53748 -6.35597 -3.83165
upperneck 9.92268 -9.02211 7.13307
head 4.37519 -4.24454 2.28501
rclavicle 1.3354e-013 -1.82882e-014
rhumerus -37.3759 -5.76039 -83.7214
rradius 23.3202
rwrist 10.8426
rhand -15.1127 -10.3861
rfingers 7.12502
rthumb 11.056 -40.0749
lclavicle 1.3354e-013 -1.82882e-014
lhumerus -32.9824 10.2242 79.3053
lradius 29.6536
lwrist 20.5035
lhand -19.9143 12.9574
lfingers 7.12502
lthumb 6.42256 42.84
rfemur -19.1705 -0.187452 33.0436
rtibia 32.8108
rfoot -19.8451 -24.4065
rtoes 12.612
lfemur 5.20514 11.1741 -8.60133
ltibia 59.2421
lfoot 10.5397 -3.03526
ltoes -13.8521
610
root 1.957 16.2877 3.69155 -364.433 -31.1966 -1.14914
lowerback 0.762707 -1.83302 3.5607
upperback 2.39035 -2.48376 0.673781
thorax 1.9066 -1.18771 -1.32111
lowerneck -5.47079 -6.41165 -3.83893
upperneck 9.75044 -9.1029 7.27368
head 4.32314 -4.28228 2.32779
rclavicle -3.04032e-014 7.15625e-015
rhumerus -37.0571 -5.47819 -83.842
rradius 23.5456
rwrist 10.4733
rhand -15.4283 -10.4675
rfingers 7.12502
rthumb 10.7516 -40.1724
lclavicle -3.04032e-014 7.15625e-015
lhumerus -33.2861 10.4779 79.414
lradius 29.1516
lwrist 20.4823
lhand -19.9972 13.302
lfingers 7.12502
lthumb 6.3425 43.1871
rfemur -18.0798 -0.310357 33.7122
rtibia 32.2709
rfoot -19.7785 -23.9836
rtoes 12.5457
lfemur 3.26043 10.3411 -8.27965
ltibia 61.3917
lfoot 9.41277 -3.52559
ltoes -13.946
611
root 1.84109 16.3075 3.83669 -364.233 -31.725 -1.54533
lowerback 0.654562 -1.77926 3.89919
upperback 2.46441 -2.42466 0.804334
thorax 2.03943 -1.15041 -1.38092
lowerneck -5.41615 -6.46195 -3.83766
upperneck 9.58382 -9.17731 7.41752
head 4.27439 -4.31626 2.37018
rclavicle 1.8928e-014 -7.55382e-015
rhumerus -36.7058 -5.19846 -83.9815
rradius 23.8073
rwrist 10.1159
rhand -15.7904 -10.537
rfingers 7.12502
rthumb 10.4024 -40.2597
lclavicle 1.8928e-014 -7.55382e-015
lhumerus -33.5382 10.7249 79.5146
lradius 28.6197
lwrist 20.4106
lhand -20.0333 13.6265
lfingers 7.12502
lthumb 6.3077 43.5126
rfemur -17.024 -0.347478 34.2269
rtibia 31.7717
rfoot -19.7726 -23.5439
rtoes 12.4242
lfemur 1.37006 9.48856 -8.16526
ltibia 63.2174
lfoot 8.22944 -3.81834
ltoes -14.0388
612
root 1.72479 16.3267 3.97928 -364.085 -32.337 -1.7908
lowerback 0.525045 -1.70025 4.0861
upperback 2.54249 -2.33262 0.896632
thorax 2.19474 -1.09825 -1.39566
lowerneck -5.38522 -6.50468 -3.83134
upperneck 9.44737 -9.24337 7.5615
head 4.23823 -4.34504 2.41119
rclavicle 6.70774e-014 -1.39149e-014
rhumerus -36.3341 -4.918 -84.1393
rradius 24.104
rwrist 9.76852
rhand -16.155 -10.5703
rfingers 7.12502
rthumb 10.0506 -40.3103
lclavicle 6.70774e-014 -1.39149e-014
lhumerus -33.7607 11.0339 79.5649
lradius 28.0432
lwrist 20.1747
lhand -19.9233 13.839
lfingers 7.12502
lthumb 6.41382 43.7219
rfemur -16.0175 -0.288481 34.6054
rtibia 31.3324
rfoot -19.8147 -23.0828
rtoes 12.245
lfemur -0.461488 8.63383 -8.22954
ltibia 64.7337
lfoot 6.99464 -3.92649
ltoes -14.1873
613
root 1.60829 16.3444 4.11901 -363.982 -33.035 -1.91018
lowerback 0.397456 -1.59789 4.15894
upperback 2.61583 -2.20793 0.94721
thorax 2.34848 -1.03147 -1.38859
lowerneck -5.37658 -6.53787 -3.81425
upperneck 9.3528 -9.30015 7.70618
head 4.21763 -4.36772 2.45002
rclavicle -6.26638e-014 3.97569e-015
rhumerus -35.9598 -4.65871 -84.3197
rradius 24.4382
rwrist 9.47487
rhand -16.5069 -10.5599
rfingers 7.12502
rthumb 9.71116 -40.316
lclavicle -6.26638e-014 3.97569e-015
lhumerus -33.9847 11.4131 79.5297
lradius 27.4311
lwrist 19.7074
lhand -19.5868 13.8612
lfingers 7.12502
lthumb 6.73876 43.7339
rfemur -15.0652 -0.136045 34.8752
rtibia 30.9687
rfoot -19.9052 -22.6032
rtoes 12.0352
lfemur -2.22885 7.7896 -8.42544
ltibia 65.9601
lfoot 5.69495 -3.86838
ltoes -14.4035
